SplineFontDB: 3.2
FontName: hiContr_Lite_Bold
FullName: hiContr Lite Bold
FamilyName: hiContr Lite
Weight: Bold
Copyright: Copyright (c) 2022, RandomMaerks (aka Bao Nguyen) (rmforbusiness@gmail.com)
UComments: "2021-12-17: Created with FontForge (http://fontforge.org)"
Version: 1.0
ItalicAngle: 0
UnderlinePosition: -100
UnderlineWidth: 50
Ascent: 800
Descent: 200
InvalidEm: 0
LayerCount: 2
Layer: 0 0 "Back" 1
Layer: 1 0 "Fore" 0
XUID: [1021 301 932173752 19662]
StyleMap: 0x0000
FSType: 0
OS2Version: 0
OS2_WeightWidthSlopeOnly: 0
OS2_UseTypoMetrics: 1
CreationTime: 1639720902
ModificationTime: 1692974778
OS2TypoAscent: 0
OS2TypoAOffset: 1
OS2TypoDescent: 0
OS2TypoDOffset: 1
OS2TypoLinegap: 90
OS2WinAscent: 0
OS2WinAOffset: 1
OS2WinDescent: 0
OS2WinDOffset: 1
HheadAscent: 0
HheadAOffset: 1
HheadDescent: 0
HheadDOffset: 1
Lookup: 4 0 1 "'liga' Standard Ligatures in Latin lookup 0" { "'liga' Standard Ligatures in Latin lookup 0-1"  } ['liga' ('DFLT' <'dflt' > 'latn' <'dflt' > ) ]
MarkAttachClasses: 1
DEI: 91125
LangName: 1033
OtfFeatName: 'ss01' 1033 "X-height level"
Encoding: Custom
UnicodeInterp: none
NameList: AGL For New Fonts
DisplaySize: -48
AntiAlias: 1
FitToEm: 0
WinInfo: 0 9 14
BeginPrivate: 0
EndPrivate
Grid
-1000 857.399993896 m 0
 2000 857.399993896 l 1024
-1000 700 m 0
 2000 700 l 1024
  Named: "cap-height"
-1000 500 m 0
 2000 500 l 1024
  Named: "x-height"
EndSplineSet
BeginChars: 65 64

StartChar: n
Encoding: 45 110 0
GlifName: n
Width: 419
Flags: HMW
LayerCount: 2
Fore
SplineSet
40 500 m 1
 68 500 l 1
 142.833007812 405.278320312 l 1
 164.725370225 487.976285967 201.959109683 528 257 528 c 0
 340.433604934 528 388 459.736776547 388 340 c 2
 388 0 l 1
 270 0 l 1
 270 370 l 2
 270 439.136711676 250.990843028 472 211 472 c 4
 178.472742582 472 158 424.874064246 158 350 c 2
 158 0 l 1
 40 0 l 1
 40 500 l 1
EndSplineSet
EndChar

StartChar: t
Encoding: 51 116 1
GlifName: t
Width: 362
Flags: HMW
LayerCount: 2
Fore
SplineSet
202 650 m 1
 240 650 l 1
 240 500 l 1
 342 500 l 1
 342 462 l 1
 240 462 l 1
 240 72 l 2
 240 49.6696800197 249.053061835 39 268 39 c 2
 341 39 l 1
 341 0 l 1
 220 0 l 2
 164.246957327 0 122 32.7629464986 122 76 c 2
 122 462 l 1
 20 462 l 1
 20 480 l 1
 202 650 l 1
EndSplineSet
EndChar

StartChar: h
Encoding: 39 104 2
GlifName: h
Width: 428
Flags: HMW
LayerCount: 2
Fore
SplineSet
40 700 m 1
 138 700 l 1
 138 401.935546875 l 1
 157.933518928 482.29828197 201.07418476 528 257 528 c 0
 340.433604934 528 388 459.736776547 388 340 c 2
 388 0 l 1
 270 0 l 1
 270 370 l 2
 270 445.914820664 250.990843028 482 211 482 c 4
 178.472742581 482 158 431.011282627 158 350 c 2
 158 0 l 1
 40 0 l 1
 40 700 l 1
EndSplineSet
EndChar

StartChar: u
Encoding: 52 117 3
GlifName: u
Width: 428
Flags: HMW
LayerCount: 2
Fore
SplineSet
388 0 m 1
 360 0 l 1
 284.7109375 103.029296875 l 1
 262.369417866 21.302766551 225.443197965 -18 171 -18 c 0
 87.5663950658 -18 40 50.2632234533 40 170 c 2
 40 500 l 1
 158 500 l 1
 158 140 l 2
 158 70.8632883239 177.009156972 38 217 38 c 4
 249.527257419 38 270 85.1259357535 270 160 c 2
 270 500 l 1
 388 500 l 1
 388 0 l 1
EndSplineSet
EndChar

StartChar: m
Encoding: 44 109 4
GlifName: m
Width: 658
Flags: HMW
LayerCount: 2
Fore
SplineSet
40 500 m 1
 68 500 l 1
 142.833007812 405.278320312 l 1
 164.725370225 487.976285967 201.959109683 528 257 528 c 0
 307.029519727 528 358.662175715 485.073771801 381.66015625 424.360351562 c 1
 394.932811751 489.828843306 433.730161438 528 487 528 c 0
 570.433604934 528 618 459.736776547 618 340 c 2
 618 0 l 1
 500 0 l 1
 500 370 l 2
 500 439.136711676 480.990843028 472 441 472 c 4
 407.292882565 472 388 423.949801913 388 340 c 2
 388 0 l 1
 270 0 l 1
 270 370 l 2
 270 439.136711676 250.990843028 472 211 472 c 4
 178.472742582 472 158 424.874064246 158 350 c 2
 158 0 l 1
 40 0 l 1
 40 500 l 1
EndSplineSet
EndChar

StartChar: r
Encoding: 49 114 5
GlifName: r
Width: 408
Flags: HMW
LayerCount: 2
Fore
SplineSet
40 500 m 1
 68 500 l 1
 142.833007812 405.278320312 l 1
 164.725370225 487.976285967 201.959109683 528 257 528 c 4
 340.433604934 528 388 459.736776547 388 340 c 5
 270 320 l 5
 270 423.027256615 250.990843028 472 211 472 c 4
 178.472742582 472 158 424.874064246 158 350 c 2
 158 0 l 1
 40 0 l 1
 40 500 l 1
EndSplineSet
EndChar

StartChar: o
Encoding: 46 111 6
GlifName: o
Width: 414
Flags: HMW
LayerCount: 2
Fore
SplineSet
207 523 m 0
 309.843102356 523 384 444.234481599 384 335 c 2
 384 175 l 2
 384 65.7655184013 309.843102356 -13 207 -13 c 0
 104.156897644 -13 30 65.7655184013 30 175 c 2
 30 335 l 2
 30 444.234481599 104.156897644 523 207 523 c 0
207 487 m 0
 167.009156972 487 148 450.914820664 148 375 c 2
 148 135 l 6
 148 59.085179336 167.009156972 23 207 23 c 4
 246.990843028 23 266 59.085179336 266 135 c 6
 266 375 l 2
 266 450.914820664 246.990843028 487 207 487 c 0
EndSplineSet
EndChar

StartChar: e
Encoding: 36 101 7
GlifName: e
Width: 414
Flags: HMWO
LayerCount: 2
Fore
SplineSet
148 269.090820312 m 1
 266 286.545898438 l 1
 266 384 l 2
 266 452.295028185 246.120453038 487 207 487 c 0
 167.009156972 487 148 450.914820664 148 375 c 2
 148 269.090820312 l 1
148 239.350585938 m 1
 148 135 l 2
 148 59.085179336 167.009156972 23 207 23 c 0
 246.990843028 23 266 78.4165254089 266 195 c 1
 384 175 l 1
 384 65.7655184013 309.843102356 -13 207 -13 c 0
 104.156897644 -13 30 65.7655184013 30 175 c 2
 30 335 l 2
 30 444.234481599 104.156897644 523 207 523 c 0
 309.843102356 523 384 444.234481599 384 335 c 2
 384 270 l 1
 148 239.350585938 l 1
EndSplineSet
EndChar

StartChar: c
Encoding: 34 99 8
GlifName: c
Width: 414
Flags: HMW
LayerCount: 2
Fore
SplineSet
384 335 m 1
 266 315 l 1
 266 428.194420097 246.990843028 482 207 482 c 0
 167.009156972 482 148 447.52576617 148 375 c 2
 148 135 l 2
 148 59.085179336 167.009156972 23 207 23 c 0
 246.990843028 23 266 78.4165254089 266 195 c 1
 384 175 l 1
 384 65.7655184013 309.843102356 -13 207 -13 c 0
 104.156897644 -13 30 65.7655184013 30 175 c 2
 30 335 l 2
 30 441.329309216 104.156897644 518 207 518 c 0
 309.843102356 518 384 441.329309216 384 335 c 1
EndSplineSet
EndChar

StartChar: l
Encoding: 43 108 9
GlifName: l
Width: 229
Flags: HMW
LayerCount: 2
Fore
SplineSet
158 0 m 2
 90.8687853532 0 40 41.3847745246 40 96 c 2
 40 650 l 1
 158 700 l 1
 158 86 l 2
 158 50.1365989487 167.053297558 33 186 33 c 6
 199 33 l 5
 199 0 l 1
 158 0 l 2
EndSplineSet
EndChar

StartChar: b
Encoding: 33 98 10
GlifName: b
Width: 424
Flags: HMW
LayerCount: 2
Fore
SplineSet
247 512 m 0
 330.479368778 512 394 433.787522101 394 331 c 2
 394 171 l 2
 394 68.2124778995 330.479368778 -10 247 -10 c 0
 194.243508978 -10 147.923759969 38.4864427001 137.666992188 104.447265625 c 5
 68 0 l 1
 40 0 l 1
 40 700 l 1
 138 700 l 1
 138 405.734375 l 1
 154.677648726 470.310240723 197.440148464 512 247 512 c 0
158 311 m 2
 158 191 l 2
 158 92.7174196762 177.009156972 46 217 46 c 0
 256.990843028 46 276 79.8298556275 276 151 c 2
 276 351 l 2
 276 422.170144372 256.990843028 456 217 456 c 0
 177.009156972 456 158 409.282580324 158 311 c 2
EndSplineSet
EndChar

StartChar: d
Encoding: 35 100 11
GlifName: d
Width: 424
Flags: HMW
LayerCount: 2
Fore
SplineSet
177 528 m 0
 93.5206312222 528 30 446.762730138 30 340 c 2
 30 180 l 2
 30 73.2372698625 93.5206312222 -8 177 -8 c 0
 227.82636975 -8 272.45148875 47.6886202393 282.333007812 123.447265625 c 1
 356 0 l 1
 384 0 l 1
 384 700 l 1
 286 700 l 1
 286 414.734375 l 1
 265.322351274 483.564025143 222.559851536 528 177 528 c 0
266 320 m 2
 266 200 l 2
 266 96.9727433847 246.990843028 48 207 48 c 4
 167.009156972 48 148 84.085179336 148 160 c 6
 148 360 l 2
 148 435.914820664 167.009156972 472 207 472 c 0
 246.990843028 472 266 423.027256615 266 320 c 2
EndSplineSet
EndChar

StartChar: p
Encoding: 47 112 12
GlifName: p
Width: 424
Flags: HMW
LayerCount: 2
Fore
SplineSet
247 -28 m 0
 330.479368778 -28 394 53.2372698625 394 160 c 2
 394 320 l 2
 394 426.762730138 330.479368778 508 247 508 c 0
 196.17363025 508 151.54851125 452.31137976 141.666992188 376.552734375 c 1
 68 500 l 1
 40 500 l 1
 40 -150 l 1
 138 -150 l 1
 138 85.265625 l 1
 158.677648726 16.4359748569 201.440148464 -28 247 -28 c 0
158 180 m 2
 158 300 l 2
 158 403.027256615 177.009156972 452 217 452 c 0
 256.990843028 452 276 415.914820664 276 340 c 2
 276 140 l 6
 276 64.085179336 256.990843028 28 217 28 c 4
 177.009156972 28 158 76.9727433846 158 180 c 2
EndSplineSet
EndChar

StartChar: q
Encoding: 48 113 13
GlifName: q
Width: 424
Flags: HMW
LayerCount: 2
Fore
SplineSet
177 -28 m 0
 93.5206312222 -28 30 53.2372698625 30 160 c 2
 30 320 l 2
 30 426.762730138 93.5206312222 508 177 508 c 0
 227.82636975 508 272.45148875 452.31137976 282.333007812 376.552734375 c 1
 356 500 l 1
 384 500 l 1
 384 -150 l 1
 286 -150 l 1
 286 85.265625 l 1
 265.322351274 16.4359748569 222.559851536 -28 177 -28 c 0
266 180 m 2
 266 300 l 2
 266 403.027256615 246.990843028 452 207 452 c 0
 167.009156972 452 148 415.914820664 148 340 c 2
 148 140 l 6
 148 64.085179336 167.009156972 28 207 28 c 4
 246.990843028 28 266 76.9727433846 266 180 c 2
EndSplineSet
EndChar

StartChar: i
Encoding: 40 105 14
GlifName: i
Width: 198
Flags: HMW
LayerCount: 2
Fore
SplineSet
158 560 m 1
 40 560 l 1
 40 670 l 1
 158 670 l 1
 158 560 l 1
158 0 m 5
 40 0 l 5
 40 500 l 5
 158 500 l 5
 158 0 l 5
EndSplineSet
EndChar

StartChar: a
Encoding: 32 97 15
GlifName: a
Width: 434
Flags: HMW
LayerCount: 2
Fore
SplineSet
290.243164062 99.01171875 m 5
 277.079247193 34.6567527064 223.398929332 -7.82027711481 155.234301156 -7.82027711481 c 4
 86.5548017344 -7.82027711481 40 42.6072708915 40 117 c 4
 40 227.068994947 128.112898035 292.649414062 276 292.649414062 c 5
 276 317 l 6
 276 424.094122008 256.990843028 475 217 475 c 4
 177.009156972 475 158 424.094122008 158 317 c 5
 40 337 l 5
 40 442.08251814 110.105714306 511 217 511 c 4
 321.860459505 511 394 440.083163581 394 337 c 6
 394 0 l 5
 360 0 l 5
 290.243164062 99.01171875 l 5
276 264.909179688 m 5
 207.759129239 264.909179688 158 211.584649388 158 138.454101562 c 4
 158 92.0669344076 184.593724739 54 217 54 c 4
 256.990843028 54 276 100.073041474 276 197 c 6
 276 264.909179688 l 5
EndSplineSet
EndChar

StartChar: f
Encoding: 37 102 17
GlifName: f
Width: 362
Flags: HMW
LayerCount: 2
Fore
SplineSet
236 611 m 6
 168.243591084 611 130 570.952465941 130 500 c 5
 342 500 l 5
 342 462 l 1
 210 462 l 1
 210 0 l 1
 92 0 l 1
 92 462 l 1
 20 462 l 1
 20 500 l 1
 92 500 l 5
 92 631.247916382 147.126458533 710 239 710 c 6
 335 710 l 5
 335 611 l 5
 236 611 l 6
EndSplineSet
EndChar

StartChar: g
Encoding: 38 103 18
GlifName: g
Width: 424
Flags: HMW
LayerCount: 2
Fore
SplineSet
266 228 m 2
 266 300 l 2
 266 409.805365603 246.990843028 462 207 462 c 0
 167.009156972 462 148 425.914820664 148 350 c 2
 148 178 l 2
 148 102.085179336 167.009156972 66 207 66 c 0
 246.990843028 66 266 118.194634397 266 228 c 2
177 20 m 0
 93.5206312222 20 30 101.237269862 30 208 c 2
 30 320 l 2
 30 426.762730138 93.5206312222 508 177 508 c 0
 236.84615518 508 272.312046403 463.741371855 282.333007812 376.552734375 c 1
 366 500 l 1
 384 500 l 1
 384 -22 l 2
 384 -132.294558787 316.674926434 -200 207 -200 c 0
 97.325073566 -200 30 -132.294558787 30 -22 c 1
 148 -2 l 1
 148 -116.838048789 165.176266182 -164 207 -164 c 0
 248.823733818 -164 266 -134.305438126 266 -62 c 2
 266 93.265625 l 1
 252.834501391 43.1270924279 224.74068214 20 177 20 c 0
EndSplineSet
EndChar

StartChar: j
Encoding: 41 106 19
GlifName: j
Width: 198
Flags: HMW
LayerCount: 2
Fore
SplineSet
158 560 m 1
 40 560 l 1
 40 670 l 1
 158 670 l 1
 158 560 l 1
40 -40 m 2
 40 500 l 1
 158 500 l 1
 158 20 l 2
 158 -117.51531725 91.6373234238 -200 -19 -200 c 0
 -40.6840110571 -200 -53.8482420357 -197.179093362 -75 -188 c 1
 -75 -157 l 5
 -64.5027528023 -160.749262024 -48.1728685123 -163.400390625 -35.576171875 -163.400390625 c 0
 14.8240233082 -163.400390625 40 -122.293183405 40 -40 c 2
EndSplineSet
EndChar

StartChar: k
Encoding: 42 107 20
GlifName: k
Width: 412
Flags: HMW
LayerCount: 2
Fore
SplineSet
158 0 m 1
 40 0 l 1
 40 700 l 1
 148 700 l 1
 148 220.895507812 l 1
 344 500 l 1
 386 500 l 1
 254.627929688 294.509765625 l 1
 392 0 l 1
 274 0 l 1
 178 212.387695312 l 5
 158 182.387695312 l 5
 158 0 l 1
EndSplineSet
EndChar

StartChar: v
Encoding: 53 118 21
GlifName: v
Width: 388
Flags: HMW
LayerCount: 2
Fore
SplineSet
244 30 m 1
 338 500 l 5
 368 500 l 1
 268 0 l 1
 140 0 l 1
 20 500 l 1
 138 500 l 1
 244 30 l 1
EndSplineSet
EndChar

StartChar: w
Encoding: 54 119 22
GlifName: w
Width: 648
Flags: HMW
LayerCount: 2
Fore
SplineSet
214 30 m 1
 290 500 l 5
 408 500 l 5
 504 30 l 1
 600 500 l 1
 628 500 l 1
 528 0 l 1
 420 0 l 1
 314 457.333007812 l 5
 238 0 l 1
 130 0 l 1
 20 500 l 1
 138 500 l 1
 214 30 l 1
EndSplineSet
EndChar

StartChar: y
Encoding: 56 121 23
GlifName: y
Width: 388
Flags: HMW
LayerCount: 2
Fore
SplineSet
258 90 m 1
 337 500 l 1
 368 500 l 1
 238 -160 l 1
 123 -160 l 1
 170 60 l 1
 150 60 l 1
 20 500 l 1
 138 500 l 1
 258 90 l 1
EndSplineSet
EndChar

StartChar: x
Encoding: 55 120 24
GlifName: x
Width: 406
Flags: HMW
LayerCount: 2
Fore
SplineSet
386 0 m 1
 268 0 l 1
 173 208.614257812 l 1
 64 0 l 1
 20 0 l 1
 153 241.228515625 l 1
 20 500 l 1
 138 500 l 1
 237 281.614257812 l 1
 348 500 l 1
 386 500 l 1
 257 249 l 1
 386 0 l 1
EndSplineSet
EndChar

StartChar: z
Encoding: 57 122 25
GlifName: z
Width: 408
Flags: HMW
LayerCount: 2
Fore
SplineSet
30 462 m 1
 30 500 l 1
 378 500 l 1
 378 460 l 1
 133.950195312 38 l 5
 378 38 l 5
 378 0 l 1
 30 0 l 1
 30 48 l 5
 273.91015625 462 l 1
 30 462 l 1
EndSplineSet
EndChar

StartChar: s
Encoding: 50 115 26
GlifName: s
Width: 414
Flags: HMW
LayerCount: 2
Fore
SplineSet
148 406.819335938 m 0
 148 362.185032525 166.977592109 341.135965867 241.016637829 303.64958718 c 0
 337.290749034 259.630038389 384 203.866083612 384 132.948546657 c 0
 384 48.7217029375 308.731428957 -16 210.779213819 -16 c 0
 104.828199498 -16 30 61.817030003 30 172 c 1
 148 192 l 1
 148 75.7991941747 166.856484495 20 206.1247701 20 c 0
 238.654140935 20 266 62.1492659927 266 112.288085938 c 0
 266 155.812172118 247.21899424 177.501254907 186.202293993 204.441779627 c 0
 82.5258962571 245.250507293 30 302.295281947 30 374.082381619 c 0
 30 456.806628299 106.654395235 520 207 520 c 0
 314.917502157 520 384 446.624239579 384 332 c 1
 266 312 l 1
 266 430.018244962 246.37971645 484 203.484641466 484 c 0
 170.282543474 484 148 453.004368472 148 406.819335938 c 0
EndSplineSet
EndChar

StartChar: H
Encoding: 13 72 27
GlifName: H_
Width: 498
Flags: HMW
LayerCount: 2
Fore
SplineSet
158 0 m 1
 40 0 l 1
 40 700 l 1
 158 700 l 1
 158 399 l 5
 340 399 l 5
 340 700 l 1
 458 700 l 1
 458 0 l 1
 340 0 l 1
 340 363 l 1
 158 363 l 1
 158 0 l 1
EndSplineSet
EndChar

StartChar: N
Encoding: 19 78 28
GlifName: N_
Width: 498
Flags: HMW
LayerCount: 2
Fore
SplineSet
88 0 m 1
 40 0 l 1
 40 700 l 1
 198 700 l 1
 400 56.6669921875 l 1
 400 700 l 1
 458 700 l 1
 458 0 l 1
 300 0 l 5
 88 666.666992188 l 1
 88 0 l 1
EndSplineSet
EndChar

StartChar: M
Encoding: 18 77 29
GlifName: M_
Width: 662
Flags: HMW
LayerCount: 2
Fore
SplineSet
331 26.36328125 m 1
 454 700 l 1
 622 700 l 1
 622 0 l 1
 504 0 l 1
 504 676.666992188 l 1
 372 0 l 1
 230 0 l 1
 88 676.666992188 l 1
 88 0 l 1
 40 0 l 1
 40 700 l 1
 208 700 l 1
 331 26.36328125 l 1
EndSplineSet
EndChar

StartChar: U
Encoding: 26 85 30
GlifName: U_
Width: 484
Flags: HMW
LayerCount: 2
Fore
SplineSet
454 190 m 2
 454 63.2593013132 371.178019815 -18 242 -18 c 0
 112.821980185 -18 30 63.2593013132 30 190 c 2
 30 700 l 1
 148 700 l 1
 148 160 l 6
 148 79.2933466393 180.819149872 36 242 36 c 4
 295.296502428 36 336 89.6939755202 336 160 c 6
 336 700 l 1
 454 700 l 1
 454 190 l 2
EndSplineSet
EndChar

StartChar: O
Encoding: 20 79 31
GlifName: O_
Width: 484
Flags: HMW
LayerCount: 2
Fore
SplineSet
242 718 m 0
 371.178019815 718 454 636.740698687 454 510 c 2
 454 190 l 2
 454 63.2593013132 371.178019815 -18 242 -18 c 0
 112.821980185 -18 30 63.2593013132 30 190 c 2
 30 510 l 2
 30 636.740698687 112.821980185 718 242 718 c 0
242 664 m 0
 180.819149872 664 148 620.706653361 148 540 c 2
 148 160 l 6
 148 79.2933466393 180.819149872 36 242 36 c 4
 295.296502428 36 336 89.6939755202 336 160 c 6
 336 540 l 2
 336 620.706653361 303.180850128 664 242 664 c 0
EndSplineSet
EndChar

StartChar: C
Encoding: 8 67 32
GlifName: C_
Width: 484
Flags: HMW
LayerCount: 2
Fore
SplineSet
454 190 m 1
 454 63.2593013132 371.178019815 -18 242 -18 c 0
 112.821980185 -18 30 63.2593013132 30 190 c 2
 30 510 l 2
 30 636.740698687 112.821980185 718 242 718 c 0
 371.178019815 718 454 636.740698687 454 510 c 1
 336 490 l 1
 336 603.249658748 303.180850128 664 242 664 c 0
 180.819149872 664 148 620.706653361 148 540 c 2
 148 160 l 6
 148 79.2933466393 180.819149872 36 242 36 c 4
 295.296502428 36 336 111.344772101 336 210 c 1
 454 190 l 1
EndSplineSet
EndChar

StartChar: G
Encoding: 12 71 33
GlifName: G_
Width: 484
Flags: HMW
LayerCount: 2
Fore
SplineSet
246 348 m 1
 454 348 l 1
 454 190 l 2
 454 63.2593013132 371.178019815 -18 242 -18 c 0
 112.821980185 -18 30 63.2593013132 30 190 c 2
 30 510 l 2
 30 636.740698687 112.821980185 718 242 718 c 0
 371.178019815 718 454 636.740698687 454 510 c 1
 336 490 l 1
 336 603.249658748 303.180850128 664 242 664 c 0
 180.819149872 664 148 620.706653361 148 540 c 2
 148 160 l 6
 148 79.2933466393 180.819149872 36 242 36 c 4
 295.296502428 36 336 89.6939755202 336 160 c 6
 336 316 l 1
 236 316 l 1
 246 348 l 1
EndSplineSet
EndChar

StartChar: Q
Encoding: 22 81 34
GlifName: Q_
Width: 484
Flags: HMW
LayerCount: 2
Fore
SplineSet
242 664 m 0
 180.819149872 664 148 620.706653361 148 540 c 2
 148 160 l 6
 148 79.2933466393 180.819149872 36 242 36 c 4
 295.296502428 36 336 89.6939755202 336 160 c 6
 336 540 l 2
 336 620.706653361 303.180850128 664 242 664 c 0
242 718 m 0
 371.178019815 718 454 636.740698687 454 510 c 2
 454 190 l 2
 454 70.7908135951 382.287489704 -7.33568372198 263.903647363 -17.0986236985 c 1
 259.313909837 -28.19547267 257 -38.8879232779 257 -49 c 0
 257 -78.1604248961 276.422358293 -90.6094182825 321.917138693 -90.6094182825 c 0
 348.683774225 -90.6094182825 378.541472993 -84.9722126539 394 -77 c 1
 378 -175 l 1
 357.965410595 -182.568622664 323.973657064 -187.920447074 295.936647617 -187.920447074 c 0
 215.611948673 -187.920447074 171 -150.81289105 171 -84 c 0
 171 -60.0418371878 176.879064688 -35.9607126371 188.449350799 -12.5260475607 c 1
 87.5061272268 8.56349774757 30 82.0664095552 30 190 c 2
 30 510 l 2
 30 636.740698687 112.821980185 718 242 718 c 0
EndSplineSet
EndChar

StartChar: S
Encoding: 24 83 35
GlifName: S_
Width: 484
Flags: HMW
LayerCount: 2
Fore
SplineSet
30 529.699007676 m 0
 30 641.711204607 115.890278239 718 242 718 c 0
 371.178019815 718 454 636.740698687 454 510 c 1
 336 490 l 1
 336 605.085762329 302.481578282 664 237.005162598 664 c 0
 177.310580457 664 138 617.858207846 138 547.790176038 c 0
 138 484.697663463 142.831924216 479.870813461 284.54753104 401.396540959 c 0
 415.304434728 328.990592727 454 278.578467843 454 180.635868076 c 0
 454 60.9002048659 369.791424814 -18 242 -18 c 0
 112.821980185 -18 30 63.2593013132 30 190 c 1
 148 210 l 1
 148 107.090002424 191.13056979 36 253.566449396 36 c 0
 307.724077463 36 346 83.7762799017 346 151.376218084 c 0
 346 218.837934758 311.118128725 254.826900433 174.971669732 327.832712031 c 0
 72.1498465203 382.968855188 30 441.66055264 30 529.699007676 c 0
EndSplineSet
EndChar

StartChar: A
Encoding: 6 65 36
GlifName: A_
Width: 498
Flags: HMW
LayerCount: 2
Fore
SplineSet
171.51953125 172 m 1
 138 0 l 1
 20 0 l 1
 170 700 l 1
 338 700 l 1
 478 0 l 1
 360 0 l 1
 330.6796875 172 l 1
 171.51953125 172 l 1
174.98046875 203 m 1
 325.0703125 203 l 1
 254 670 l 1
 174.98046875 203 l 1
EndSplineSet
EndChar

StartChar: V
Encoding: 27 86 37
GlifName: V_
Width: 498
Flags: HMW
LayerCount: 2
Fore
SplineSet
294 20 m 5
 440 700 l 1
 478 700 l 1
 328 0 l 5
 180 0 l 5
 20 700 l 1
 138 700 l 1
 294 20 l 5
EndSplineSet
EndChar

StartChar: W
Encoding: 28 87 38
GlifName: W_
Width: 820
Flags: HMW
LayerCount: 2
Fore
SplineSet
254 30 m 5
 360 700 l 1
 489 700 l 1
 646 30 l 1
 768 700 l 1
 800 700 l 1
 672 0 l 1
 552 0 l 1
 390 671.538085938 l 1
 288 0 l 5
 160 0 l 1
 20 700 l 1
 138 700 l 1
 254 30 l 5
EndSplineSet
EndChar

StartChar: L
Encoding: 17 76 39
GlifName: L_
Width: 438
Flags: HMW
LayerCount: 2
Fore
SplineSet
158 50 m 5
 408 50 l 5
 408 0 l 1
 40 0 l 1
 40 700 l 1
 158 700 l 1
 158 50 l 5
EndSplineSet
EndChar

StartChar: D
Encoding: 9 68 40
GlifName: D_
Width: 484
Flags: HMW
LayerCount: 2
Fore
SplineSet
158 54 m 5
 242 54 l 6
 295.296502428 54 336 107.69397552 336 178 c 6
 336 522 l 2
 336 602.706653361 303.180850128 646 242 646 c 2
 158 646 l 1
 158 54 l 5
40 0 m 1
 40 700 l 1
 242 700 l 2
 371.178019815 700 454 618.740698687 454 492 c 2
 454 208 l 2
 454 81.2593013132 371.178019815 0 242 0 c 2
 40 0 l 1
EndSplineSet
EndChar

StartChar: I
Encoding: 14 73 41
GlifName: I_
Width: 198
Flags: HMW
LayerCount: 2
Fore
SplineSet
158 0 m 5
 40 0 l 5
 40 700 l 5
 158 700 l 5
 158 0 l 5
EndSplineSet
EndChar

StartChar: B
Encoding: 7 66 42
GlifName: B_
Width: 484
Flags: HMW
LayerCount: 2
Fore
SplineSet
158 44 m 1
 242 44 l 2
 300.230731226 44 333.677734375 103.424164827 333.677734375 206.880745226 c 0
 333.677734375 316.270766541 297.677719353 387 242 387 c 2
 158 387 l 1
 158 44 l 1
158 411 m 1
 202 411 l 2
 266.787112483 411 293.677734375 449.327686496 293.677734375 541.669921875 c 0
 293.677734375 614.499037219 260.399402859 656 202 656 c 2
 158 656 l 1
 158 411 l 1
340.518554688 407.6484375 m 1
 414.391477608 384.353893151 454 327.235544126 454 244 c 2
 454 200 l 2
 454 74.7760666296 374.737369373 0 242 0 c 2
 40 0 l 1
 40 700 l 1
 202 700 l 2
 335.154158571 700 407.131835938 638.817366542 407.131835938 525.633357621 c 0
 407.131835938 466.633057893 393.979665116 443.338036318 340.518554688 407.6484375 c 1
EndSplineSet
EndChar

StartChar: P
Encoding: 21 80 43
GlifName: P_
Width: 484
Flags: HMW
LayerCount: 2
Fore
SplineSet
40 700 m 5
 242 700 l 6
 371.178019815 700 454 626.554093044 454 512 c 6
 454 468 l 6
 454 368.021051035 368.163911789 300 242 300 c 6
 158 300 l 5
 158 0 l 5
 40 0 l 5
 40 700 l 5
158 334 m 5
 242 334 l 6
 302.733235305 334 333.677734375 390.057279552 333.677734375 500.078125 c 4
 333.677734375 603.195025127 302.629874925 656 242 656 c 6
 158 656 l 5
 158 334 l 5
EndSplineSet
EndChar

StartChar: R
Encoding: 23 82 44
GlifName: R_
Width: 484
Flags: HMW
LayerCount: 2
Fore
SplineSet
158 334 m 1
 242 334 l 2
 302.733235305 334 333.677734375 390.057279552 333.677734375 500.078125 c 0
 333.677734375 603.195025127 302.629874925 656 242 656 c 2
 158 656 l 1
 158 334 l 1
40 700 m 1
 242 700 l 2
 371.178019815 700 454 626.554093044 454 512 c 2
 454 468 l 2
 454 393.443697215 409.785586612 338.432078893 329.566618899 313.17986007 c 1
 458 0 l 1
 334 0 l 1
 210.971608833 300 l 1
 158 300 l 1
 158 0 l 1
 40 0 l 1
 40 700 l 1
EndSplineSet
EndChar

StartChar: T
Encoding: 25 84 45
GlifName: T_
Width: 468
Flags: HMW
LayerCount: 2
Fore
SplineSet
174 650 m 1
 30 650 l 1
 30 700 l 1
 438 700 l 1
 438 650 l 1
 292 650 l 1
 292 0 l 1
 174 0 l 1
 174 650 l 1
EndSplineSet
EndChar

StartChar: J
Encoding: 15 74 46
GlifName: J_
Width: 293
Flags: HMW
LayerCount: 2
Fore
SplineSet
135 150 m 2
 135 700 l 1
 253 700 l 1
 253 180 l 6
 253 51.4186169503 202.438359999 0 76 0 c 2
 20 0 l 1
 20 47 l 1
 59 47 l 2
 113.011096329 47 135 76.8007510283 135 150 c 2
EndSplineSet
EndChar

StartChar: E
Encoding: 10 69 47
GlifName: E_
Width: 438
Flags: HMW
LayerCount: 2
Fore
SplineSet
158 386 m 5
 386 386 l 5
 386 340 l 5
 158 340 l 5
 158 50 l 5
 408 50 l 5
 408 0 l 5
 40 0 l 5
 40 700 l 5
 408 700 l 5
 408 650 l 5
 158 650 l 5
 158 386 l 5
EndSplineSet
EndChar

StartChar: F
Encoding: 11 70 48
GlifName: F_
Width: 438
Flags: HMW
LayerCount: 2
Fore
SplineSet
158 386 m 1
 386 386 l 1
 386 340 l 1
 158 340 l 1
 158 0 l 1
 40 0 l 1
 40 700 l 1
 408 700 l 1
 408 650 l 1
 158 650 l 1
 158 386 l 1
EndSplineSet
EndChar

StartChar: Y
Encoding: 30 89 49
GlifName: Y_
Width: 498
Flags: HMW
LayerCount: 2
Fore
SplineSet
274 300 m 1
 430 700 l 5
 478 700 l 1
 299 253 l 1
 299 0 l 1
 189 0 l 1
 189 253 l 1
 20 700 l 1
 138 700 l 1
 274 300 l 1
EndSplineSet
EndChar

StartChar: K
Encoding: 16 75 50
GlifName: K_
Width: 482
Flags: HMW
LayerCount: 2
Fore
SplineSet
158 0 m 1
 40 0 l 1
 40 700 l 1
 158 700 l 1
 158 320.895507812 l 1
 414 700 l 1
 462 700 l 1
 260.627929688 384.509765625 l 1
 452 0 l 1
 324 0 l 1
 176 298.387695312 l 1
 158 272.387695312 l 1
 158 0 l 1
EndSplineSet
EndChar

StartChar: X
Encoding: 29 88 51
GlifName: X_
Width: 514
Flags: HMW
LayerCount: 2
Fore
SplineSet
494 0 m 1
 376 0 l 1
 241 288 l 5
 68 0 l 1
 20 0 l 1
 220 324.614257812 l 5
 20 700 l 1
 138 700 l 1
 279 424 l 1
 455 700 l 1
 494 700 l 1
 300 387.385742188 l 1
 494 0 l 1
EndSplineSet
EndChar

StartChar: Z
Encoding: 31 90 52
GlifName: Z_
Width: 478
Flags: HMW
LayerCount: 2
Fore
SplineSet
30 662 m 1
 30 700 l 1
 448 700 l 1
 448 660 l 1
 133.950195312 38 l 5
 448 38 l 5
 448 0 l 1
 30 0 l 1
 30 48 l 5
 343.91015625 662 l 1
 30 662 l 1
EndSplineSet
EndChar

StartChar: period
Encoding: 3 46 53
GlifName: period
Width: 198
Flags: HMW
LayerCount: 2
Fore
SplineSet
158 0 m 5
 40 0 l 5
 40 116 l 5
 158 116 l 5
 158 0 l 5
EndSplineSet
EndChar

StartChar: comma
Encoding: 1 44 54
GlifName: comma
Width: 198
Flags: HMW
LayerCount: 2
Fore
SplineSet
90 -126 m 5
 50 -100 l 5
 101.724609375 0 l 5
 40 0 l 5
 40 116 l 5
 158 116 l 5
 158 0 l 5
 90 -126 l 5
EndSplineSet
EndChar

StartChar: question
Encoding: 5 63 55
GlifName: question
Width: 484
Flags: HMW
LayerCount: 2
Fore
SplineSet
288.348632812 0 m 1
 170.348632812 0 l 1
 170.348632812 116 l 1
 288.348632812 116 l 1
 288.348632812 0 l 1
281.348632812 297.969726562 m 5
 281.348632812 186 l 1
 172.348632812 186 l 1
 172.348632812 320 l 1
 263.558506862 320 326 392.742777863 326 499 c 0
 326 606.612994406 297.118850793 663 242 663 c 0
 184.718474724 663 158 604.473817272 158 479 c 1
 40 499 l 1
 40 627.843920731 116.872730829 707 242 707 c 0
 367.127269171 707 444 627.843920731 444 499 c 0
 444 396.231596216 382.318801134 319.996219358 281.348632812 297.969726562 c 5
EndSplineSet
EndChar

StartChar: colon
Encoding: 4 58 56
GlifName: colon
Width: 198
Flags: HMW
LayerCount: 2
Fore
SplineSet
158 384 m 5
 40 384 l 5
 40 500 l 5
 158 500 l 5
 158 384 l 5
158 94 m 5
 40 94 l 5
 40 210 l 5
 158 210 l 5
 158 94 l 5
EndSplineSet
EndChar

StartChar: hyphen
Encoding: 2 45 57
GlifName: hyphen
Width: 347
Flags: W
HStem: 215 93<40 307>
VStem: 40 267<215 308>
LayerCount: 2
Fore
SplineSet
40 308 m 1
 307 308 l 1
 307 215 l 1
 40 215 l 1
 40 308 l 1
EndSplineSet
EndChar

StartChar: K_H
Encoding: 58 -1 58
GlifName: K__H_
Width: 484
Flags: HW
LayerCount: 2
Fore
SplineSet
261 316 m 1
 384.558163032 316 455 264.076377905 455 173 c 1
 337 153 l 1
 337 248.571336728 308.325169992 294 248 294 c 1
 261 316 l 1
158 336 m 1
 242 336 l 2
 302.733235305 336 333.677734375 392.057279552 333.677734375 502.078125 c 0
 333.677734375 605.195025126 302.629874925 658 242 658 c 2
 158 658 l 1
 158 336 l 1
248 294 m 2
 158 294 l 1
 158 0 l 1
 40 0 l 1
 40 700 l 1
 242 700 l 2
 371.178019815 700 454 626.554093044 454 512 c 2
 454 468 l 2
 454 362.044688163 373.441346198 294 248 294 c 2
EndSplineSet
Ligature2: "'liga' Standard Ligatures in Latin lookup 0-1" K H
EndChar

StartChar: K_h
Encoding: 59 -1 59
GlifName: K__h
Width: 484
Flags: HW
LayerCount: 2
Fore
SplineSet
261 316 m 5
 384.558163032 316 455 264.076377905 455 173 c 5
 337 153 l 5
 337 248.571336728 308.325169992 294 248 294 c 5
 261 316 l 5
158 336 m 5
 242 336 l 6
 302.733235305 336 333.677734375 392.057279552 333.677734375 502.078125 c 4
 333.677734375 605.195025126 302.629874925 658 242 658 c 6
 158 658 l 5
 158 336 l 5
248 294 m 6
 158 294 l 5
 158 0 l 5
 40 0 l 5
 40 700 l 5
 242 700 l 6
 371.178019815 700 454 626.554093044 454 512 c 6
 454 468 l 6
 454 362.044688163 373.441346198 294 248 294 c 6
EndSplineSet
Ligature2: "'liga' Standard Ligatures in Latin lookup 0-1" K h
EndChar

StartChar: k_h
Encoding: 60 -1 60
GlifName: k_h
Width: 435
Flags: HW
LayerCount: 2
Fore
SplineSet
241 226 m 1
 345.181892032 226 405 173.841527808 405 83 c 1
 287 63 l 1
 287 158.796721251 268.085152864 204 228 204 c 1
 241 226 l 1
158 246 m 1
 222 246 l 2
 262.971702937 246 284 281.951604656 284 352 c 0
 284 412.796720487 269.75502457 444 242 444 c 0
 192.29773727 444 158 368.055010331 158 258 c 1
 158 246 l 1
120 240 m 1
 120 397.885379841 179.697777939 500 272 500 c 0
 352.387920056 500 404 442.131910366 404 352 c 2
 404 338 l 2
 404 256.266854027 335.350997696 204 228 204 c 2
 158 204 l 1
 120 240 l 1
158 0 m 1
 40 0 l 1
 40 700 l 1
 158 700 l 1
 158 0 l 1
EndSplineSet
Ligature2: "'liga' Standard Ligatures in Latin lookup 0-1" k h
EndChar

StartChar: P_H_T_H
Encoding: 61 -1 61
GlifName: P__H__T__H_
Width: 509
Flags: HW
LayerCount: 2
Fore
SplineSet
65 170 m 2
 65 570 l 2
 65 651 124 700 222 700 c 2
 258 700 l 1
 258 658 l 1
 240 658 l 2
 204 658 183 615.090909091 183 540 c 1
 267 540 l 2
 396 540 479 467 479 352 c 2
 479 308 l 2
 479 208 393 140 267 140 c 2
 183 140 l 1
 183 52.7058823529 126 0 32 0 c 2
 0 0 l 1
 0 42 l 1
 18 42 l 2
 52 42 65 77 65 170 c 2
183 496 m 1
 183 174 l 1
 267 174 l 2
 328 174 359 230 359 340 c 0
 359 443 328 496 267 496 c 2
 183 496 l 1
EndSplineSet
Ligature2: "'liga' Standard Ligatures in Latin lookup 0-1" P H T H
EndChar

StartChar: P_h_t_h
Encoding: 62 -1 62
GlifName: P__h_t_h
Width: 509
Flags: HW
LayerCount: 2
Fore
SplineSet
65 170 m 2
 65 570 l 2
 65 651 124 700 222 700 c 2
 258 700 l 1
 258 658 l 1
 240 658 l 2
 204 658 183 615.090909091 183 540 c 1
 267 540 l 2
 396 540 479 467 479 352 c 2
 479 308 l 2
 479 208 393 140 267 140 c 2
 183 140 l 1
 183 52.7058823529 126 0 32 0 c 2
 0 0 l 1
 0 42 l 1
 18 42 l 2
 52 42 65 77 65 170 c 2
183 496 m 1
 183 174 l 1
 267 174 l 2
 328 174 359 230 359 340 c 0
 359 443 328 496 267 496 c 2
 183 496 l 1
EndSplineSet
Ligature2: "'liga' Standard Ligatures in Latin lookup 0-1" P h t h
EndChar

StartChar: p_h_t_h
Encoding: 63 -1 63
GlifName: p_h_t_h
Width: 424
Flags: HW
LayerCount: 2
Fore
SplineSet
158 311 m 2
 158 191 l 2
 158 92.7174196762 177.009156972 46 217 46 c 0
 256.990843028 46 276 79.8298556275 276 151 c 2
 276 351 l 2
 276 422.170144372 256.990843028 456 217 456 c 0
 177.009156972 456 158 409.282580324 158 311 c 2
247 512 m 0
 330.479368778 512 394 433.787522101 394 331 c 2
 394 171 l 2
 394 68.2124778995 330.479368778 -10 247 -10 c 0
 194.243508978 -10 147.923759969 38.4864427001 137.666992188 104.447265625 c 1
 138 -50 l 2
 138 -118.748908581 88.8737002189 -160 7 -160 c 2
 -45 -160 l 1
 -45 -118 l 1
 -7 -118 l 2
 23.0429360288 -118 40 -104.99179926 40 -50 c 2
 40 490 l 2
 40 621.247916382 110.126855413 700 227 700 c 2
 263 700 l 1
 263 658 l 1
 245 658 l 2
 176.604379679 658 138 597.387516019 138 490 c 2
 138 405.734375 l 1
 154.677648726 470.310240723 197.440148464 512 247 512 c 0
EndSplineSet
Ligature2: "'liga' Standard Ligatures in Latin lookup 0-1" p h t h
EndChar
